<mxfile host="app.diagrams.net" modified="2024-01-11T11:49:21.814Z" agent="Mozilla/5.0 (Macintosh; Intel Mac OS X 10_15_7) AppleWebKit/537.36 (KHTML, like Gecko) Chrome/120.0.0.0 Safari/537.36" etag="0THdY6iJrD63S1wcjMgO" version="22.1.18" type="device">
  <diagram name="Page-1" id="d8wBceXlghkX7GGiXUjG">
    <mxGraphModel dx="1283" dy="813" grid="0" gridSize="10" guides="1" tooltips="1" connect="1" arrows="1" fold="1" page="1" pageScale="1" pageWidth="1169" pageHeight="827" background="none" math="0" shadow="0">
      <root>
        <mxCell id="0" />
        <mxCell id="1" parent="0" />
        <mxCell id="HaTpfiP529WtoOlqOGXO-23" value="" style="group" parent="1" vertex="1" connectable="0">
          <mxGeometry x="693" y="316" width="100" height="108" as="geometry" />
        </mxCell>
        <mxCell id="HaTpfiP529WtoOlqOGXO-21" value="" style="sketch=0;outlineConnect=0;fontColor=#232F3E;gradientColor=none;fillColor=#7AA116;strokeColor=none;dashed=0;verticalLabelPosition=bottom;verticalAlign=top;align=center;html=1;fontSize=12;fontStyle=0;aspect=fixed;pointerEvents=1;shape=mxgraph.aws4.mqtt_protocol;" parent="HaTpfiP529WtoOlqOGXO-23" vertex="1">
          <mxGeometry x="11" y="51" width="78" height="78" as="geometry" />
        </mxCell>
        <mxCell id="HaTpfiP529WtoOlqOGXO-22" value="Message Broker" style="text;html=1;align=center;verticalAlign=middle;resizable=0;points=[];autosize=1;strokeColor=none;fillColor=none;fontSize=10;" parent="HaTpfiP529WtoOlqOGXO-23" vertex="1">
          <mxGeometry width="100" height="30" as="geometry" />
        </mxCell>
        <mxCell id="HaTpfiP529WtoOlqOGXO-71" value="p" style="ellipse;whiteSpace=wrap;html=1;aspect=fixed;fillColor=#d5e8d4;strokeColor=#82b366;" parent="HaTpfiP529WtoOlqOGXO-23" vertex="1">
          <mxGeometry y="31" width="20" height="20" as="geometry" />
        </mxCell>
        <mxCell id="HaTpfiP529WtoOlqOGXO-72" value="s" style="ellipse;whiteSpace=wrap;html=1;aspect=fixed;fillColor=#ffe6cc;strokeColor=#d79b00;" parent="HaTpfiP529WtoOlqOGXO-23" vertex="1">
          <mxGeometry x="20" y="31" width="20" height="20" as="geometry" />
        </mxCell>
        <mxCell id="HaTpfiP529WtoOlqOGXO-27" value="" style="group" parent="1" vertex="1" connectable="0">
          <mxGeometry x="380" y="348" width="90" height="81" as="geometry" />
        </mxCell>
        <mxCell id="HaTpfiP529WtoOlqOGXO-24" value="" style="image;sketch=0;aspect=fixed;html=1;points=[];align=center;fontSize=12;image=img/lib/mscae/Docker.svg;" parent="HaTpfiP529WtoOlqOGXO-27" vertex="1">
          <mxGeometry x="20" y="40" width="50" height="41" as="geometry" />
        </mxCell>
        <mxCell id="HaTpfiP529WtoOlqOGXO-25" value="MicroServices" style="text;html=1;align=center;verticalAlign=middle;resizable=0;points=[];autosize=1;strokeColor=none;fillColor=none;fontSize=10;" parent="HaTpfiP529WtoOlqOGXO-27" vertex="1">
          <mxGeometry y="10" width="90" height="30" as="geometry" />
        </mxCell>
        <mxCell id="HaTpfiP529WtoOlqOGXO-26" value="Control Center" style="text;html=1;align=center;verticalAlign=middle;resizable=0;points=[];autosize=1;strokeColor=none;fillColor=none;fontSize=10;" parent="HaTpfiP529WtoOlqOGXO-27" vertex="1">
          <mxGeometry width="90" height="30" as="geometry" />
        </mxCell>
        <mxCell id="HaTpfiP529WtoOlqOGXO-34" value="" style="group" parent="1" vertex="1" connectable="0">
          <mxGeometry x="109.99999999999994" y="327" width="100" height="81" as="geometry" />
        </mxCell>
        <mxCell id="HaTpfiP529WtoOlqOGXO-31" value="" style="image;sketch=0;aspect=fixed;html=1;points=[];align=center;fontSize=12;image=img/lib/mscae/Docker.svg;" parent="HaTpfiP529WtoOlqOGXO-34" vertex="1">
          <mxGeometry x="25" y="40" width="50" height="41" as="geometry" />
        </mxCell>
        <mxCell id="HaTpfiP529WtoOlqOGXO-32" value="MicroServices" style="text;html=1;align=center;verticalAlign=middle;resizable=0;points=[];autosize=1;strokeColor=none;fillColor=none;fontSize=10;" parent="HaTpfiP529WtoOlqOGXO-34" vertex="1">
          <mxGeometry x="5" width="90" height="30" as="geometry" />
        </mxCell>
        <mxCell id="HaTpfiP529WtoOlqOGXO-33" value="Account Manager" style="text;html=1;align=center;verticalAlign=middle;resizable=0;points=[];autosize=1;strokeColor=none;fillColor=none;fontSize=10;" parent="HaTpfiP529WtoOlqOGXO-34" vertex="1">
          <mxGeometry y="10" width="100" height="30" as="geometry" />
        </mxCell>
        <mxCell id="HaTpfiP529WtoOlqOGXO-42" value="" style="group" parent="1" vertex="1" connectable="0">
          <mxGeometry x="110" y="417" width="100" height="91" as="geometry" />
        </mxCell>
        <mxCell id="HaTpfiP529WtoOlqOGXO-36" value="MicroServices" style="text;html=1;align=center;verticalAlign=middle;resizable=0;points=[];autosize=1;strokeColor=none;fillColor=none;fontSize=10;" parent="HaTpfiP529WtoOlqOGXO-42" vertex="1">
          <mxGeometry width="90" height="30" as="geometry" />
        </mxCell>
        <mxCell id="HaTpfiP529WtoOlqOGXO-47" style="edgeStyle=orthogonalEdgeStyle;rounded=1;orthogonalLoop=1;jettySize=auto;html=1;entryX=0.8;entryY=0.463;entryDx=0;entryDy=0;entryPerimeter=0;curved=0;dashed=1;fillColor=#f8cecc;strokeColor=#b85450;startArrow=classic;startFill=1;jumpStyle=arc;" parent="1" source="HaTpfiP529WtoOlqOGXO-21" target="HaTpfiP529WtoOlqOGXO-24" edge="1">
          <mxGeometry relative="1" as="geometry" />
        </mxCell>
        <mxCell id="HaTpfiP529WtoOlqOGXO-30" value="" style="group" parent="1" vertex="1" connectable="0">
          <mxGeometry x="380" y="565.84" width="90.00000000000006" height="92.02999999999997" as="geometry" />
        </mxCell>
        <mxCell id="HaTpfiP529WtoOlqOGXO-28" value="" style="image;sketch=0;aspect=fixed;html=1;points=[];align=center;fontSize=12;image=img/lib/mscae/Data_Catalog.svg;" parent="HaTpfiP529WtoOlqOGXO-30" vertex="1">
          <mxGeometry x="15.840000000000032" y="30" width="58.31" height="62.03" as="geometry" />
        </mxCell>
        <mxCell id="HaTpfiP529WtoOlqOGXO-29" value="Home Catalog" style="text;html=1;align=center;verticalAlign=middle;resizable=0;points=[];autosize=1;strokeColor=none;fillColor=none;fontSize=10;" parent="HaTpfiP529WtoOlqOGXO-30" vertex="1">
          <mxGeometry width="90" height="30" as="geometry" />
        </mxCell>
        <mxCell id="HaTpfiP529WtoOlqOGXO-41" value="" style="group" parent="1" vertex="1" connectable="0">
          <mxGeometry x="110" y="648" width="100" height="84.5" as="geometry" />
        </mxCell>
        <mxCell id="HaTpfiP529WtoOlqOGXO-38" value="" style="image;sketch=0;aspect=fixed;html=1;points=[];align=center;fontSize=12;image=img/lib/mscae/Docker.svg;" parent="HaTpfiP529WtoOlqOGXO-41" vertex="1">
          <mxGeometry x="22.22222222222222" y="42.25" width="51.52439024390244" height="42.25" as="geometry" />
        </mxCell>
        <mxCell id="HaTpfiP529WtoOlqOGXO-39" value="MicroServices" style="text;html=1;align=center;verticalAlign=middle;resizable=0;points=[];autosize=1;strokeColor=none;fillColor=none;fontSize=10;" parent="HaTpfiP529WtoOlqOGXO-41" vertex="1">
          <mxGeometry width="90" height="30" as="geometry" />
        </mxCell>
        <mxCell id="HaTpfiP529WtoOlqOGXO-40" value="Telegram Bot" style="text;html=1;align=center;verticalAlign=middle;resizable=0;points=[];autosize=1;strokeColor=none;fillColor=none;fontSize=10;" parent="HaTpfiP529WtoOlqOGXO-41" vertex="1">
          <mxGeometry x="5.555555555555555" y="12.365853658536587" width="80" height="30" as="geometry" />
        </mxCell>
        <mxCell id="HaTpfiP529WtoOlqOGXO-35" value="" style="image;sketch=0;aspect=fixed;html=1;points=[];align=center;fontSize=12;image=img/lib/mscae/Docker.svg;" parent="1" vertex="1">
          <mxGeometry x="131.1111111111111" y="540.8881927710843" width="54.81927710843374" height="44.95180722891567" as="geometry" />
        </mxCell>
        <mxCell id="HaTpfiP529WtoOlqOGXO-37" value="Dashboard" style="text;html=1;align=center;verticalAlign=middle;resizable=0;points=[];autosize=1;strokeColor=none;fillColor=none;fontSize=10;" parent="1" vertex="1">
          <mxGeometry x="120" y="507.9966265060241" width="70" height="30" as="geometry" />
        </mxCell>
        <mxCell id="HaTpfiP529WtoOlqOGXO-51" style="edgeStyle=orthogonalEdgeStyle;rounded=1;orthogonalLoop=1;jettySize=auto;html=1;entryX=0.987;entryY=0.416;entryDx=0;entryDy=0;entryPerimeter=0;curved=0;startArrow=classic;startFill=1;jumpStyle=arc;" parent="1" source="HaTpfiP529WtoOlqOGXO-28" target="HaTpfiP529WtoOlqOGXO-35" edge="1">
          <mxGeometry relative="1" as="geometry" />
        </mxCell>
        <mxCell id="HaTpfiP529WtoOlqOGXO-52" style="edgeStyle=orthogonalEdgeStyle;rounded=1;orthogonalLoop=1;jettySize=auto;html=1;entryX=0.927;entryY=0.527;entryDx=0;entryDy=0;entryPerimeter=0;jumpStyle=arc;curved=0;startArrow=classic;startFill=1;" parent="1" source="HaTpfiP529WtoOlqOGXO-28" target="HaTpfiP529WtoOlqOGXO-38" edge="1">
          <mxGeometry relative="1" as="geometry">
            <Array as="points">
              <mxPoint x="290" y="627" />
              <mxPoint x="290" y="712" />
            </Array>
          </mxGeometry>
        </mxCell>
        <mxCell id="HaTpfiP529WtoOlqOGXO-53" style="edgeStyle=orthogonalEdgeStyle;rounded=1;orthogonalLoop=1;jettySize=auto;html=1;curved=0;jumpStyle=arc;startArrow=classic;startFill=1;" parent="1" source="HaTpfiP529WtoOlqOGXO-35" target="HaTpfiP529WtoOlqOGXO-31" edge="1">
          <mxGeometry relative="1" as="geometry">
            <Array as="points">
              <mxPoint x="80" y="563" />
              <mxPoint x="80" y="393" />
            </Array>
          </mxGeometry>
        </mxCell>
        <mxCell id="HaTpfiP529WtoOlqOGXO-54" style="edgeStyle=orthogonalEdgeStyle;rounded=1;orthogonalLoop=1;jettySize=auto;html=1;exitX=0.43;exitY=0.019;exitDx=0;exitDy=0;exitPerimeter=0;curved=0;jumpStyle=arc;startArrow=classic;startFill=1;" parent="1" source="HaTpfiP529WtoOlqOGXO-35" target="HaTpfiP529WtoOlqOGXO-24" edge="1">
          <mxGeometry relative="1" as="geometry">
            <Array as="points">
              <mxPoint x="155" y="506" />
              <mxPoint x="280" y="506" />
              <mxPoint x="280" y="409" />
            </Array>
          </mxGeometry>
        </mxCell>
        <mxCell id="HaTpfiP529WtoOlqOGXO-57" style="edgeStyle=orthogonalEdgeStyle;rounded=1;orthogonalLoop=1;jettySize=auto;html=1;curved=0;startArrow=classic;startFill=1;jumpStyle=arc;exitX=0.777;exitY=0.985;exitDx=0;exitDy=0;exitPerimeter=0;" parent="1" source="HaTpfiP529WtoOlqOGXO-24" edge="1">
          <mxGeometry relative="1" as="geometry">
            <mxPoint x="400" y="404.0526315789475" as="sourcePoint" />
            <mxPoint x="155" y="725" as="targetPoint" />
            <Array as="points">
              <mxPoint x="439" y="448" />
              <mxPoint x="479" y="448" />
              <mxPoint x="479" y="782" />
              <mxPoint x="154" y="782" />
              <mxPoint x="154" y="735" />
              <mxPoint x="155" y="735" />
            </Array>
          </mxGeometry>
        </mxCell>
        <mxCell id="HaTpfiP529WtoOlqOGXO-58" style="edgeStyle=orthogonalEdgeStyle;rounded=1;orthogonalLoop=1;jettySize=auto;html=1;curved=0;jumpStyle=arc;startArrow=classic;startFill=1;" parent="1" source="HaTpfiP529WtoOlqOGXO-24" target="HaTpfiP529WtoOlqOGXO-28" edge="1">
          <mxGeometry relative="1" as="geometry" />
        </mxCell>
        <mxCell id="HaTpfiP529WtoOlqOGXO-59" style="edgeStyle=orthogonalEdgeStyle;rounded=1;orthogonalLoop=1;jettySize=auto;html=1;curved=0;jumpStyle=arc;" parent="1" source="HaTpfiP529WtoOlqOGXO-31" target="HaTpfiP529WtoOlqOGXO-28" edge="1">
          <mxGeometry relative="1" as="geometry">
            <Array as="points">
              <mxPoint x="60" y="384" />
              <mxPoint x="60" y="758" />
              <mxPoint x="425" y="758" />
            </Array>
          </mxGeometry>
        </mxCell>
        <mxCell id="HaTpfiP529WtoOlqOGXO-60" style="edgeStyle=orthogonalEdgeStyle;rounded=1;orthogonalLoop=1;jettySize=auto;html=1;curved=0;jumpStyle=arc;" parent="1" source="HaTpfiP529WtoOlqOGXO-31" target="HaTpfiP529WtoOlqOGXO-24" edge="1">
          <mxGeometry relative="1" as="geometry">
            <Array as="points">
              <mxPoint x="293" y="388" />
              <mxPoint x="293" y="396" />
            </Array>
          </mxGeometry>
        </mxCell>
        <mxCell id="babrJcsDry_aqaJPXN1u-15" value="" style="group" parent="1" vertex="1" connectable="0">
          <mxGeometry x="829.0000000000001" y="326" width="340.4999999999999" height="153.5" as="geometry" />
        </mxCell>
        <mxCell id="HaTpfiP529WtoOlqOGXO-2" value="" style="sketch=0;outlineConnect=0;fontColor=#232F3E;gradientColor=none;fillColor=#7AA116;strokeColor=none;dashed=0;verticalLabelPosition=bottom;verticalAlign=top;align=center;html=1;fontSize=12;fontStyle=0;aspect=fixed;pointerEvents=1;shape=mxgraph.aws4.iot_thing_temperature_humidity_sensor;" parent="babrJcsDry_aqaJPXN1u-15" vertex="1">
          <mxGeometry x="181.4999999999999" width="49" height="49" as="geometry" />
        </mxCell>
        <mxCell id="HaTpfiP529WtoOlqOGXO-3" value="" style="sketch=0;outlineConnect=0;fontColor=#232F3E;gradientColor=none;fillColor=#7AA116;strokeColor=none;dashed=0;verticalLabelPosition=bottom;verticalAlign=top;align=center;html=1;fontSize=12;fontStyle=0;aspect=fixed;pointerEvents=1;shape=mxgraph.aws4.iot_thing_temperature_vibration_sensor;" parent="babrJcsDry_aqaJPXN1u-15" vertex="1">
          <mxGeometry x="180.4999999999999" y="54.110000000000014" width="51" height="51" as="geometry" />
        </mxCell>
        <mxCell id="HaTpfiP529WtoOlqOGXO-5" value="Temperature Sensor" style="text;html=1;align=center;verticalAlign=middle;resizable=0;points=[];autosize=1;strokeColor=none;fillColor=none;fontSize=10;" parent="babrJcsDry_aqaJPXN1u-15" vertex="1">
          <mxGeometry x="231.4999999999999" y="67.61000000000001" width="109" height="24" as="geometry" />
        </mxCell>
        <mxCell id="HaTpfiP529WtoOlqOGXO-6" value="Humidity Sensor" style="text;html=1;align=center;verticalAlign=middle;resizable=0;points=[];autosize=1;strokeColor=none;fillColor=none;fontSize=10;" parent="babrJcsDry_aqaJPXN1u-15" vertex="1">
          <mxGeometry x="231.4999999999999" y="14.610000000000014" width="91" height="24" as="geometry" />
        </mxCell>
        <mxCell id="HaTpfiP529WtoOlqOGXO-7" value="" style="shape=image;html=1;verticalAlign=top;verticalLabelPosition=bottom;labelBackgroundColor=#ffffff;imageAspect=0;aspect=fixed;image=https://cdn1.iconfinder.com/data/icons/iconoir-vol-1/24/air-conditioner-128.png;imageBackground=#FFFFFF;" parent="babrJcsDry_aqaJPXN1u-15" vertex="1">
          <mxGeometry x="188.9999999999999" y="112.5" width="41" height="41" as="geometry" />
        </mxCell>
        <mxCell id="HaTpfiP529WtoOlqOGXO-8" value="Air Conditioner" style="text;html=1;align=center;verticalAlign=middle;resizable=0;points=[];autosize=1;strokeColor=none;fillColor=none;fontSize=10;" parent="babrJcsDry_aqaJPXN1u-15" vertex="1">
          <mxGeometry x="234.4999999999999" y="116.5" width="84" height="24" as="geometry" />
        </mxCell>
        <mxCell id="HaTpfiP529WtoOlqOGXO-9" value="s" style="ellipse;whiteSpace=wrap;html=1;aspect=fixed;fillColor=#ffe6cc;strokeColor=#d79b00;" parent="babrJcsDry_aqaJPXN1u-15" vertex="1">
          <mxGeometry x="168.9999999999999" y="112.5" width="20" height="20" as="geometry" />
        </mxCell>
        <mxCell id="HaTpfiP529WtoOlqOGXO-10" value="p" style="ellipse;whiteSpace=wrap;html=1;aspect=fixed;fillColor=#d5e8d4;strokeColor=#82b366;" parent="babrJcsDry_aqaJPXN1u-15" vertex="1">
          <mxGeometry x="160.4999999999999" y="3.6100000000000136" width="20" height="20" as="geometry" />
        </mxCell>
        <mxCell id="HaTpfiP529WtoOlqOGXO-11" value="p" style="ellipse;whiteSpace=wrap;html=1;aspect=fixed;fillColor=#d5e8d4;strokeColor=#82b366;" parent="babrJcsDry_aqaJPXN1u-15" vertex="1">
          <mxGeometry x="163.9999999999999" y="58.610000000000014" width="20" height="20" as="geometry" />
        </mxCell>
        <mxCell id="HaTpfiP529WtoOlqOGXO-43" style="edgeStyle=orthogonalEdgeStyle;rounded=1;orthogonalLoop=1;jettySize=auto;html=1;jumpStyle=arc;fillColor=#d5e8d4;strokeColor=#82b366;curved=0;dashed=1;entryX=1;entryY=0.25;entryDx=0;entryDy=0;" parent="babrJcsDry_aqaJPXN1u-15" source="HaTpfiP529WtoOlqOGXO-2" target="HaTpfiP529WtoOlqOGXO-1" edge="1">
          <mxGeometry relative="1" as="geometry" />
        </mxCell>
        <mxCell id="HaTpfiP529WtoOlqOGXO-44" style="edgeStyle=orthogonalEdgeStyle;rounded=1;orthogonalLoop=1;jettySize=auto;html=1;jumpStyle=arc;fillColor=#d5e8d4;strokeColor=#82b366;curved=0;dashed=1;entryX=1;entryY=0.5;entryDx=0;entryDy=0;" parent="babrJcsDry_aqaJPXN1u-15" source="HaTpfiP529WtoOlqOGXO-3" target="HaTpfiP529WtoOlqOGXO-1" edge="1">
          <mxGeometry relative="1" as="geometry">
            <Array as="points">
              <mxPoint x="102.99999999999989" y="79.61000000000001" />
            </Array>
          </mxGeometry>
        </mxCell>
        <mxCell id="HaTpfiP529WtoOlqOGXO-45" style="edgeStyle=orthogonalEdgeStyle;rounded=1;orthogonalLoop=1;jettySize=auto;html=1;startArrow=classic;startFill=1;endArrow=none;endFill=0;jumpStyle=arc;curved=0;dashed=1;fillColor=#d5e8d4;strokeColor=#82b366;entryX=1;entryY=0.75;entryDx=0;entryDy=0;" parent="babrJcsDry_aqaJPXN1u-15" source="HaTpfiP529WtoOlqOGXO-7" target="HaTpfiP529WtoOlqOGXO-1" edge="1">
          <mxGeometry relative="1" as="geometry" />
        </mxCell>
        <mxCell id="babrJcsDry_aqaJPXN1u-23" value="" style="group" parent="babrJcsDry_aqaJPXN1u-15" vertex="1" connectable="0">
          <mxGeometry y="13" width="119" height="115" as="geometry" />
        </mxCell>
        <mxCell id="babrJcsDry_aqaJPXN1u-6" value="" style="group" parent="babrJcsDry_aqaJPXN1u-23" vertex="1" connectable="0">
          <mxGeometry width="119" height="99.5" as="geometry" />
        </mxCell>
        <mxCell id="HaTpfiP529WtoOlqOGXO-14" value="Raspberry Pie Connector" style="text;html=1;align=center;verticalAlign=middle;resizable=0;points=[];autosize=1;strokeColor=none;fillColor=none;strokeWidth=1;fontSize=9;" parent="babrJcsDry_aqaJPXN1u-6" vertex="1">
          <mxGeometry y="13" width="119" height="23" as="geometry" />
        </mxCell>
        <mxCell id="HaTpfiP529WtoOlqOGXO-15" value="Simulated" style="text;html=1;align=center;verticalAlign=middle;resizable=0;points=[];autosize=1;strokeColor=none;fillColor=none;strokeWidth=1;fontSize=9;" parent="babrJcsDry_aqaJPXN1u-6" vertex="1">
          <mxGeometry x="29.5" width="60" height="20" as="geometry" />
        </mxCell>
        <mxCell id="HaTpfiP529WtoOlqOGXO-1" value="" style="rounded=1;whiteSpace=wrap;html=1;" parent="babrJcsDry_aqaJPXN1u-6" vertex="1">
          <mxGeometry x="29" y="36" width="61" height="63.5" as="geometry" />
        </mxCell>
        <mxCell id="HaTpfiP529WtoOlqOGXO-4" value="" style="shape=image;html=1;verticalAlign=top;verticalLabelPosition=bottom;labelBackgroundColor=#ffffff;imageAspect=0;aspect=fixed;image=https://cdn1.iconfinder.com/data/icons/fruit-136/64/Fruit_iconfree_Filled_Outline_raspberry-healthy-organic-food-fruit_icon-128.png" parent="babrJcsDry_aqaJPXN1u-6" vertex="1">
          <mxGeometry x="34.499999999999886" y="42.75" width="50" height="50" as="geometry" />
        </mxCell>
        <mxCell id="babrJcsDry_aqaJPXN1u-1" style="edgeStyle=orthogonalEdgeStyle;rounded=0;orthogonalLoop=1;jettySize=auto;html=1;exitX=0.5;exitY=1;exitDx=0;exitDy=0;" parent="babrJcsDry_aqaJPXN1u-6" source="HaTpfiP529WtoOlqOGXO-1" target="HaTpfiP529WtoOlqOGXO-1" edge="1">
          <mxGeometry relative="1" as="geometry" />
        </mxCell>
        <mxCell id="babrJcsDry_aqaJPXN1u-17" value="p" style="ellipse;whiteSpace=wrap;html=1;aspect=fixed;fillColor=#d5e8d4;strokeColor=#82b366;" parent="babrJcsDry_aqaJPXN1u-23" vertex="1">
          <mxGeometry x="31" y="99.5" width="15.5" height="15.5" as="geometry" />
        </mxCell>
        <mxCell id="babrJcsDry_aqaJPXN1u-19" value="s" style="ellipse;whiteSpace=wrap;html=1;aspect=fixed;fillColor=#ffe6cc;strokeColor=#d79b00;" parent="babrJcsDry_aqaJPXN1u-23" vertex="1">
          <mxGeometry x="46.499999999999886" y="99.5" width="15" height="15" as="geometry" />
        </mxCell>
        <mxCell id="babrJcsDry_aqaJPXN1u-16" style="edgeStyle=orthogonalEdgeStyle;rounded=1;orthogonalLoop=1;jettySize=auto;html=1;startArrow=classic;startFill=1;jumpStyle=arc;curved=0;dashed=1;fillColor=#f8cecc;strokeColor=#b85450;" parent="1" source="HaTpfiP529WtoOlqOGXO-4" target="HaTpfiP529WtoOlqOGXO-21" edge="1">
          <mxGeometry relative="1" as="geometry" />
        </mxCell>
        <mxCell id="babrJcsDry_aqaJPXN1u-29" style="edgeStyle=orthogonalEdgeStyle;rounded=1;orthogonalLoop=1;jettySize=auto;html=1;entryX=1.015;entryY=0.551;entryDx=0;entryDy=0;entryPerimeter=0;curved=0;jumpStyle=arc;" parent="1" edge="1">
          <mxGeometry relative="1" as="geometry">
            <Array as="points">
              <mxPoint x="890.98" y="632.5" />
            </Array>
            <mxPoint x="890.98" y="441" as="sourcePoint" />
            <mxPoint x="464.0046500000001" y="632.5185300000003" as="targetPoint" />
          </mxGeometry>
        </mxCell>
        <mxCell id="0TZa3aicDJlDbe-rdo-b-3" value="" style="group" parent="1" vertex="1" connectable="0">
          <mxGeometry x="538" y="176" width="60" height="82.80000000000001" as="geometry" />
        </mxCell>
        <mxCell id="0TZa3aicDJlDbe-rdo-b-1" value="" style="verticalLabelPosition=bottom;aspect=fixed;html=1;shape=mxgraph.salesforce.analytics;" parent="0TZa3aicDJlDbe-rdo-b-3" vertex="1">
          <mxGeometry y="24" width="60" height="58.8" as="geometry" />
        </mxCell>
        <mxCell id="0TZa3aicDJlDbe-rdo-b-2" value="Analytics" style="text;html=1;align=center;verticalAlign=middle;resizable=0;points=[];autosize=1;strokeColor=none;fillColor=none;fontSize=10;" parent="0TZa3aicDJlDbe-rdo-b-3" vertex="1">
          <mxGeometry x="1.5" width="58" height="24" as="geometry" />
        </mxCell>
        <mxCell id="0TZa3aicDJlDbe-rdo-b-4" style="edgeStyle=orthogonalEdgeStyle;rounded=1;orthogonalLoop=1;jettySize=auto;html=1;entryX=0.517;entryY=0.918;entryDx=0;entryDy=0;entryPerimeter=0;curved=0;jumpStyle=arc;exitX=0.34;exitY=0.011;exitDx=0;exitDy=0;exitPerimeter=0;" parent="1" source="0TZa3aicDJlDbe-rdo-b-14" target="0TZa3aicDJlDbe-rdo-b-1" edge="1">
          <mxGeometry relative="1" as="geometry">
            <Array as="points">
              <mxPoint x="735" y="613" />
              <mxPoint x="569" y="613" />
            </Array>
          </mxGeometry>
        </mxCell>
        <mxCell id="0TZa3aicDJlDbe-rdo-b-5" style="edgeStyle=orthogonalEdgeStyle;rounded=1;orthogonalLoop=1;jettySize=auto;html=1;curved=0;jumpStyle=arc;" parent="1" source="0TZa3aicDJlDbe-rdo-b-1" target="HaTpfiP529WtoOlqOGXO-24" edge="1">
          <mxGeometry relative="1" as="geometry" />
        </mxCell>
        <mxCell id="0TZa3aicDJlDbe-rdo-b-11" value="" style="group" parent="1" vertex="1" connectable="0">
          <mxGeometry x="970" y="686" width="199" height="141" as="geometry" />
        </mxCell>
        <mxCell id="babrJcsDry_aqaJPXN1u-10" value="" style="group" parent="0TZa3aicDJlDbe-rdo-b-11" vertex="1" connectable="0">
          <mxGeometry x="0.6051041666666741" y="23.652482269503547" width="155.36458333333334" height="19.574468085106385" as="geometry" />
        </mxCell>
        <mxCell id="HaTpfiP529WtoOlqOGXO-62" value="" style="endArrow=none;dashed=1;html=1;rounded=1;curved=0;fillColor=#f8cecc;strokeColor=#b85450;strokeWidth=3;" parent="babrJcsDry_aqaJPXN1u-10" edge="1">
          <mxGeometry width="50" height="50" relative="1" as="geometry">
            <mxPoint y="9.787234042553193" as="sourcePoint" />
            <mxPoint x="65.41666666666667" y="9.787234042553193" as="targetPoint" />
          </mxGeometry>
        </mxCell>
        <mxCell id="HaTpfiP529WtoOlqOGXO-67" value="MQTT Connection" style="text;html=1;align=center;verticalAlign=middle;resizable=0;points=[];autosize=1;strokeColor=none;fillColor=none;fontSize=10;" parent="babrJcsDry_aqaJPXN1u-10" vertex="1">
          <mxGeometry x="73.59375" width="100" height="24" as="geometry" />
        </mxCell>
        <mxCell id="babrJcsDry_aqaJPXN1u-11" value="" style="group" parent="0TZa3aicDJlDbe-rdo-b-11" vertex="1" connectable="0">
          <mxGeometry x="5.810167162204986e-15" width="155.96968750000002" height="19.574468085106385" as="geometry" />
        </mxCell>
        <mxCell id="babrJcsDry_aqaJPXN1u-8" value="" style="endArrow=none;dashed=1;html=1;rounded=1;curved=0;fillColor=#d5e8d4;strokeColor=#82b366;strokeWidth=3;" parent="babrJcsDry_aqaJPXN1u-11" edge="1">
          <mxGeometry width="50" height="50" relative="1" as="geometry">
            <mxPoint y="9.787234042553193" as="sourcePoint" />
            <mxPoint x="65.41666666666667" y="9.787234042553193" as="targetPoint" />
          </mxGeometry>
        </mxCell>
        <mxCell id="babrJcsDry_aqaJPXN1u-9" value="Wired Connection" style="text;html=1;align=center;verticalAlign=middle;resizable=0;points=[];autosize=1;strokeColor=none;fillColor=none;fontSize=10;" parent="babrJcsDry_aqaJPXN1u-11" vertex="1">
          <mxGeometry x="76.65197916666666" width="97" height="24" as="geometry" />
        </mxCell>
        <mxCell id="babrJcsDry_aqaJPXN1u-13" value="" style="group" parent="0TZa3aicDJlDbe-rdo-b-11" vertex="1" connectable="0">
          <mxGeometry x="5.810167162204986e-15" y="67.69503546099291" width="155.36458333333334" height="24.46808510638298" as="geometry" />
        </mxCell>
        <mxCell id="HaTpfiP529WtoOlqOGXO-64" value="p" style="ellipse;whiteSpace=wrap;html=1;aspect=fixed;fillColor=#d5e8d4;strokeColor=#82b366;" parent="babrJcsDry_aqaJPXN1u-13" vertex="1">
          <mxGeometry y="4.078014184397163" width="16.27170138888889" height="16.27170138888889" as="geometry" />
        </mxCell>
        <mxCell id="HaTpfiP529WtoOlqOGXO-69" value="MQTT Publisher" style="text;html=1;align=center;verticalAlign=middle;resizable=0;points=[];autosize=1;strokeColor=none;fillColor=none;fontSize=10;" parent="babrJcsDry_aqaJPXN1u-13" vertex="1">
          <mxGeometry x="73.59375" width="100" height="30" as="geometry" />
        </mxCell>
        <mxCell id="babrJcsDry_aqaJPXN1u-14" value="" style="group" parent="0TZa3aicDJlDbe-rdo-b-11" vertex="1" connectable="0">
          <mxGeometry y="95.42553191489363" width="153.94177083333332" height="19.574468085106385" as="geometry" />
        </mxCell>
        <mxCell id="HaTpfiP529WtoOlqOGXO-65" value="s" style="ellipse;whiteSpace=wrap;html=1;aspect=fixed;fillColor=#ffe6cc;strokeColor=#d79b00;" parent="babrJcsDry_aqaJPXN1u-14" vertex="1">
          <mxGeometry y="1.6312056737588654" width="16.27170138888889" height="16.27170138888889" as="geometry" />
        </mxCell>
        <mxCell id="HaTpfiP529WtoOlqOGXO-70" value="MQTT Subscriber" style="text;html=1;align=center;verticalAlign=middle;resizable=0;points=[];autosize=1;strokeColor=none;fillColor=none;fontSize=10;" parent="babrJcsDry_aqaJPXN1u-14" vertex="1">
          <mxGeometry x="74.62406250000001" width="97" height="24" as="geometry" />
        </mxCell>
        <mxCell id="0TZa3aicDJlDbe-rdo-b-10" value="" style="group" parent="0TZa3aicDJlDbe-rdo-b-11" vertex="1" connectable="0">
          <mxGeometry x="5.810167162204986e-15" y="46.48936170212766" width="199" height="94.51063829787233" as="geometry" />
        </mxCell>
        <mxCell id="HaTpfiP529WtoOlqOGXO-63" value="" style="endArrow=none;html=1;rounded=0;" parent="0TZa3aicDJlDbe-rdo-b-10" edge="1">
          <mxGeometry width="50" height="50" relative="1" as="geometry">
            <mxPoint y="12.03014184397163" as="sourcePoint" />
            <mxPoint x="65.41666666666667" y="12.23404255319149" as="targetPoint" />
          </mxGeometry>
        </mxCell>
        <mxCell id="HaTpfiP529WtoOlqOGXO-68" value="REST Connection" style="text;html=1;align=center;verticalAlign=middle;resizable=0;points=[];autosize=1;strokeColor=none;fillColor=none;fontSize=10;" parent="0TZa3aicDJlDbe-rdo-b-10" vertex="1">
          <mxGeometry x="75.22916666666667" width="100" height="30" as="geometry" />
        </mxCell>
        <mxCell id="HaTpfiP529WtoOlqOGXO-66" value="" style="rounded=1;whiteSpace=wrap;html=1;fillColor=none;" parent="0TZa3aicDJlDbe-rdo-b-10" vertex="1">
          <mxGeometry x="-11" y="-55.49" width="186" height="133.49" as="geometry" />
        </mxCell>
        <mxCell id="0TZa3aicDJlDbe-rdo-b-12" style="edgeStyle=orthogonalEdgeStyle;rounded=1;orthogonalLoop=1;jettySize=auto;html=1;entryX=-0.03;entryY=0.144;entryDx=0;entryDy=0;entryPerimeter=0;curved=0;jumpStyle=arc;" parent="1" source="0TZa3aicDJlDbe-rdo-b-1" target="HaTpfiP529WtoOlqOGXO-35" edge="1">
          <mxGeometry relative="1" as="geometry">
            <Array as="points">
              <mxPoint x="27" y="229" />
              <mxPoint x="27" y="549" />
              <mxPoint x="128" y="549" />
              <mxPoint x="128" y="547" />
            </Array>
          </mxGeometry>
        </mxCell>
        <mxCell id="0TZa3aicDJlDbe-rdo-b-13" style="edgeStyle=orthogonalEdgeStyle;rounded=1;orthogonalLoop=1;jettySize=auto;html=1;curved=0;jumpStyle=arc;exitX=-0.066;exitY=0.485;exitDx=0;exitDy=0;exitPerimeter=0;" parent="1" source="0TZa3aicDJlDbe-rdo-b-1" edge="1">
          <mxGeometry relative="1" as="geometry">
            <mxPoint x="138" y="711" as="targetPoint" />
            <Array as="points">
              <mxPoint x="27" y="229" />
              <mxPoint x="27" y="711" />
            </Array>
          </mxGeometry>
        </mxCell>
        <mxCell id="0TZa3aicDJlDbe-rdo-b-18" style="edgeStyle=orthogonalEdgeStyle;rounded=1;orthogonalLoop=1;jettySize=auto;html=1;curved=0;jumpStyle=arc;" parent="1" source="0TZa3aicDJlDbe-rdo-b-14" target="HaTpfiP529WtoOlqOGXO-38" edge="1">
          <mxGeometry relative="1" as="geometry">
            <Array as="points">
              <mxPoint x="600" y="696" />
              <mxPoint x="600" y="696" />
            </Array>
          </mxGeometry>
        </mxCell>
        <mxCell id="0TZa3aicDJlDbe-rdo-b-14" value="" style="image;html=1;image=img/lib/clip_art/networking/Cloud_128x128.png" parent="1" vertex="1">
          <mxGeometry x="715.5" y="671" width="56" height="52" as="geometry" />
        </mxCell>
        <mxCell id="0TZa3aicDJlDbe-rdo-b-15" value="Time Series Database" style="text;html=1;align=center;verticalAlign=middle;resizable=0;points=[];autosize=1;strokeColor=none;fillColor=none;fontSize=10;" parent="1" vertex="1">
          <mxGeometry x="685" y="718" width="117" height="24" as="geometry" />
        </mxCell>
        <mxCell id="0TZa3aicDJlDbe-rdo-b-16" style="edgeStyle=orthogonalEdgeStyle;rounded=1;orthogonalLoop=1;jettySize=auto;html=1;curved=0;fillColor=#f8cecc;strokeColor=#b85450;dashed=1;" parent="1" source="HaTpfiP529WtoOlqOGXO-21" target="0TZa3aicDJlDbe-rdo-b-14" edge="1">
          <mxGeometry relative="1" as="geometry" />
        </mxCell>
        <mxCell id="0TZa3aicDJlDbe-rdo-b-17" style="edgeStyle=orthogonalEdgeStyle;rounded=1;orthogonalLoop=1;jettySize=auto;html=1;entryX=0.786;entryY=0.929;entryDx=0;entryDy=0;entryPerimeter=0;curved=0;jumpStyle=arc;exitX=0;exitY=0.5;exitDx=0;exitDy=0;" parent="1" source="0TZa3aicDJlDbe-rdo-b-14" target="HaTpfiP529WtoOlqOGXO-35" edge="1">
          <mxGeometry relative="1" as="geometry">
            <Array as="points">
              <mxPoint x="742" y="696" />
              <mxPoint x="237" y="696" />
              <mxPoint x="237" y="583" />
            </Array>
          </mxGeometry>
        </mxCell>
        <mxCell id="bYxFWEgQ6SpD7pUPTYKo-2" style="edgeStyle=orthogonalEdgeStyle;rounded=1;orthogonalLoop=1;jettySize=auto;html=1;entryX=0.141;entryY=1.02;entryDx=0;entryDy=0;entryPerimeter=0;curved=0;jumpStyle=arc;exitX=1.012;exitY=0.258;exitDx=0;exitDy=0;exitPerimeter=0;" edge="1" parent="1" source="HaTpfiP529WtoOlqOGXO-28" target="0TZa3aicDJlDbe-rdo-b-1">
          <mxGeometry relative="1" as="geometry">
            <Array as="points">
              <mxPoint x="547" y="612" />
              <mxPoint x="547" y="581" />
              <mxPoint x="547" y="581" />
            </Array>
          </mxGeometry>
        </mxCell>
        <mxCell id="bYxFWEgQ6SpD7pUPTYKo-3" style="edgeStyle=orthogonalEdgeStyle;rounded=1;orthogonalLoop=1;jettySize=auto;html=1;curved=0;jumpStyle=arc;startArrow=classic;startFill=1;exitX=0.47;exitY=1.01;exitDx=0;exitDy=0;exitPerimeter=0;" edge="1" parent="1" source="HaTpfiP529WtoOlqOGXO-40">
          <mxGeometry relative="1" as="geometry">
            <Array as="points">
              <mxPoint x="153" y="652" />
              <mxPoint x="153" y="608" />
              <mxPoint x="81" y="608" />
              <mxPoint x="81" y="394" />
            </Array>
            <mxPoint x="131.94" y="564" as="sourcePoint" />
            <mxPoint x="135.94" y="394" as="targetPoint" />
          </mxGeometry>
        </mxCell>
      </root>
    </mxGraphModel>
  </diagram>
</mxfile>
